<?xml version="1.0" encoding="UTF-8"?>
<svg version="1.1" xmlns="http://www.w3.org/2000/svg" width="1024" height="1024">
<path d="M0 0 C337.92 0 675.84 0 1024 0 C1024 337.92 1024 675.84 1024 1024 C686.08 1024 348.16 1024 0 1024 C0 686.08 0 348.16 0 0 Z " fill="none" transform="translate(0,0)"/>
<path d="M0 0 C1.1909336 -0.00445784 2.3818672 -0.00891569 3.6088897 -0.01350862 C4.90847457 -0.01332426 6.20805945 -0.01313989 7.54702568 -0.01294994 C8.94863291 -0.01625178 10.3502392 -0.01997803 11.75184429 -0.02409142 C15.59901561 -0.03408386 19.44617134 -0.03782379 23.2933538 -0.04048073 C27.4450056 -0.0443922 31.59664515 -0.0539702 35.74828911 -0.0626936 C45.77489328 -0.08243822 55.80149844 -0.09252343 65.82811719 -0.10142139 C70.55647141 -0.10580912 75.28482453 -0.11117482 80.01317787 -0.11641026 C95.7443735 -0.13342346 111.47556844 -0.14791454 127.20677185 -0.155159 C131.28738341 -0.15706873 135.36799496 -0.15898908 139.44860649 -0.16094494 C140.96983304 -0.16167055 140.96983304 -0.16167055 142.52179144 -0.16241082 C158.92644439 -0.17069952 175.33102415 -0.19601639 191.73564519 -0.22852562 C208.60023824 -0.26167211 225.4647942 -0.27961475 242.32941997 -0.28280324 C251.78906726 -0.28496174 261.24860794 -0.29361277 270.70822334 -0.31926441 C278.77003726 -0.34107567 286.83171868 -0.34897111 294.89355876 -0.33929763 C298.99937204 -0.33478238 303.10491256 -0.33647492 307.21068764 -0.35605907 C344.37500062 -0.52333579 375.42966435 6.11799678 402.68737602 32.78656483 C421.40007377 52.39171431 432.16438373 78.77051824 432.11015129 105.87402821 C432.11354963 107.13952413 432.11354963 107.13952413 432.11701661 108.43058562 C432.1233123 111.23838715 432.12253011 114.04613986 432.12170219 116.85394764 C432.12469646 118.875041 432.12809961 120.89613379 432.13187981 122.91722584 C432.14069703 128.39465894 432.14305697 133.8720764 432.14369559 139.34951591 C432.14440742 142.77556298 432.14654427 146.20160609 432.14919281 149.62765217 C432.1584389 161.59127014 432.16252864 173.55487699 432.16174126 185.51849842 C432.16114076 196.65197657 432.17168908 207.78540623 432.18748492 218.91887212 C432.20058177 228.49281709 432.20592425 238.06674625 432.20528585 247.6407001 C432.20503148 253.35195958 432.20784885 259.06317594 432.2184639 264.77442646 C432.22818092 270.14903701 432.22819941 275.52356355 432.22094727 280.89817715 C432.21990588 282.86368972 432.22223765 284.82920763 432.22830772 286.79471111 C432.25711405 296.77356818 432.13343784 306.33523254 429.97643852 316.13422108 C429.60325493 318.00787342 429.60325493 318.00787342 429.22253227 319.91937733 C422.49391102 347.19142192 405.8441156 370.30641152 381.97643852 385.13422108 C356.96176529 399.725071 331.65084787 401.58264041 303.3396101 401.54153728 C299.3648114 401.53973201 295.39010205 401.55724058 291.41534233 401.57330799 C280.49531152 401.61407486 269.57528935 401.62572404 258.65519524 401.63683796 C248.60214476 401.64735888 238.54920988 401.6641033 228.49623084 401.70493364 C223.77667704 401.72325307 219.05739946 401.72719715 214.33781862 401.71999836 C211.4094194 401.71847675 208.4811589 401.72925621 205.55279732 401.74337673 C203.55124399 401.74928368 201.54966403 401.74027731 199.54812431 401.73082447 C198.35418053 401.73902714 197.16023674 401.7472298 195.93011284 401.75568104 C194.37728788 401.7567498 194.37728788 401.7567498 192.79309273 401.75784016 C187.07083049 402.52248863 183.29613756 406.44371274 179.22643852 410.25922108 C178.70275688 410.74423084 178.17907524 411.22924061 177.63952446 411.72894764 C173.75991042 415.34345078 169.99379344 419.0593912 166.30456352 422.86859608 C163.6577854 425.44431975 160.88768573 427.84449799 158.0994854 430.26508045 C154.69091245 433.26600438 151.40005108 436.3885403 148.10143852 439.50922108 C142.94315519 444.36788763 137.7519987 449.17737662 132.46471977 453.89593983 C129.44265993 456.61437042 126.45883049 459.37242788 123.47643852 462.13422108 C118.85570995 466.41158056 114.20138005 470.64732225 109.51159477 474.84906483 C106.60730558 477.46695262 103.72874881 480.11177237 100.85143852 482.75922108 C96.98271294 486.31694218 93.07703725 489.82185419 89.09753227 493.25531483 C86.89354252 495.20765197 84.74972415 497.21854934 82.60363579 499.23407459 C70.90710136 510.16775189 62.9123176 514.49956274 46.78893852 514.57172108 C45.51212212 514.60459217 44.23530571 514.63746326 42.9197979 514.67133045 C33.51130635 514.72454043 26.79372311 513.21038496 19.53893852 507.07172108 C19.02331352 506.43234608 18.50768852 505.79297108 17.97643852 505.13422108 C17.44018852 504.49484608 16.90393852 503.85547108 16.35143852 503.19672108 C12.77229783 497.82801003 12.69770625 493.101414 12.74938774 486.845891 C12.74909569 485.91857166 12.74880363 484.99125233 12.74850273 484.03583241 C12.74989317 480.97868884 12.76544103 477.92179069 12.78112602 474.86468983 C12.78485717 472.74191388 12.78770366 470.61913621 12.78970146 468.49635792 C12.79732992 462.9150258 12.81697173 457.33379812 12.83910942 451.75250721 C12.85958476 446.05488974 12.8687068 440.35725537 12.87878227 434.6596117 C12.90021829 423.48443566 12.93434481 412.30933706 12.97643852 401.13422108 C11.84351372 401.14799793 10.71058891 401.16177479 9.54333305 401.17596912 C8.02364139 401.18711744 6.50394718 401.19792262 4.98425102 401.20843983 C4.24150932 401.21838978 3.49876762 401.22833973 2.7335186 401.23859119 C-24.99379683 401.38182637 -50.62574938 387.89823767 -70.33606148 369.19672108 C-93.76130724 344.6202346 -100.15541083 316.12645194 -100.20056343 283.31439686 C-100.20683733 281.3059881 -100.21348494 279.29758047 -100.22047615 277.28917408 C-100.24141215 270.71930197 -100.25187009 264.14942991 -100.26184273 257.57953358 C-100.26589447 255.30720349 -100.27001151 253.03487353 -100.27419281 250.76254368 C-100.29322306 240.08061578 -100.30745751 229.39869469 -100.31580478 218.71675313 C-100.32556331 206.4356419 -100.35185594 194.15471157 -100.39230567 181.87366402 C-100.42258781 172.34881101 -100.43728514 162.82400951 -100.44058579 153.29910934 C-100.4429228 147.62556614 -100.45170582 141.95221666 -100.47704697 136.27872562 C-100.50054497 130.93190372 -100.50447475 125.58540011 -100.49428558 120.2385397 C-100.49379532 118.29250172 -100.49996226 116.34644688 -100.51384163 114.40045834 C-100.63897796 95.79165203 -98.24065721 78.0286414 -90.02356148 61.13422108 C-89.7079023 60.48501698 -89.39224312 59.83581287 -89.06701851 59.16693592 C-76.82575679 34.63106074 -55.74812639 15.7453306 -30.02356148 6.13422108 C-20.27652584 2.91189091 -10.32599156 0.01800434 0 0 Z " fill="none" transform="translate(346.02356147766113,254.86577892303467)"/>
<path d="M0 0 C1.1909336 -0.00445784 2.3818672 -0.00891569 3.6088897 -0.01350862 C4.90847457 -0.01332426 6.20805945 -0.01313989 7.54702568 -0.01294994 C8.94863291 -0.01625178 10.3502392 -0.01997803 11.75184429 -0.02409142 C15.59901561 -0.03408386 19.44617134 -0.03782379 23.2933538 -0.04048073 C27.4450056 -0.0443922 31.59664515 -0.0539702 35.74828911 -0.0626936 C45.77489328 -0.08243822 55.80149844 -0.09252343 65.82811719 -0.10142139 C70.55647141 -0.10580912 75.28482453 -0.11117482 80.01317787 -0.11641026 C95.7443735 -0.13342346 111.47556844 -0.14791454 127.20677185 -0.155159 C131.28738341 -0.15706873 135.36799496 -0.15898908 139.44860649 -0.16094494 C140.96983304 -0.16167055 140.96983304 -0.16167055 142.52179144 -0.16241082 C158.92644439 -0.17069952 175.33102415 -0.19601639 191.73564519 -0.22852562 C208.60023824 -0.26167211 225.4647942 -0.27961475 242.32941997 -0.28280324 C251.78906726 -0.28496174 261.24860794 -0.29361277 270.70822334 -0.31926441 C278.77003726 -0.34107567 286.83171868 -0.34897111 294.89355876 -0.33929763 C298.99937204 -0.33478238 303.10491256 -0.33647492 307.21068764 -0.35605907 C344.37500062 -0.52333579 375.42966435 6.11799678 402.68737602 32.78656483 C421.40007377 52.39171431 432.16438373 78.77051824 432.11015129 105.87402821 C432.11354963 107.13952413 432.11354963 107.13952413 432.11701661 108.43058562 C432.1233123 111.23838715 432.12253011 114.04613986 432.12170219 116.85394764 C432.12469646 118.875041 432.12809961 120.89613379 432.13187981 122.91722584 C432.14069703 128.39465894 432.14305697 133.8720764 432.14369559 139.34951591 C432.14440742 142.77556298 432.14654427 146.20160609 432.14919281 149.62765217 C432.1584389 161.59127014 432.16252864 173.55487699 432.16174126 185.51849842 C432.16114076 196.65197657 432.17168908 207.78540623 432.18748492 218.91887212 C432.20058177 228.49281709 432.20592425 238.06674625 432.20528585 247.6407001 C432.20503148 253.35195958 432.20784885 259.06317594 432.2184639 264.77442646 C432.22818092 270.14903701 432.22819941 275.52356355 432.22094727 280.89817715 C432.21990588 282.86368972 432.22223765 284.82920763 432.22830772 286.79471111 C432.25711405 296.77356818 432.13343784 306.33523254 429.97643852 316.13422108 C429.60325493 318.00787342 429.60325493 318.00787342 429.22253227 319.91937733 C422.49391102 347.19142192 405.8441156 370.30641152 381.97643852 385.13422108 C356.96176529 399.725071 331.65084787 401.58264041 303.3396101 401.54153728 C299.3648114 401.53973201 295.39010205 401.55724058 291.41534233 401.57330799 C280.49531152 401.61407486 269.57528935 401.62572404 258.65519524 401.63683796 C248.60214476 401.64735888 238.54920988 401.6641033 228.49623084 401.70493364 C223.77667704 401.72325307 219.05739946 401.72719715 214.33781862 401.71999836 C211.4094194 401.71847675 208.4811589 401.72925621 205.55279732 401.74337673 C203.55124399 401.74928368 201.54966403 401.74027731 199.54812431 401.73082447 C198.35418053 401.73902714 197.16023674 401.7472298 195.93011284 401.75568104 C194.37728788 401.7567498 194.37728788 401.7567498 192.79309273 401.75784016 C187.07083049 402.52248863 183.29613756 406.44371274 179.22643852 410.25922108 C178.70275688 410.74423084 178.17907524 411.22924061 177.63952446 411.72894764 C173.75991042 415.34345078 169.99379344 419.0593912 166.30456352 422.86859608 C163.6577854 425.44431975 160.88768573 427.84449799 158.0994854 430.26508045 C154.69091245 433.26600438 151.40005108 436.3885403 148.10143852 439.50922108 C142.94315519 444.36788763 137.7519987 449.17737662 132.46471977 453.89593983 C129.44265993 456.61437042 126.45883049 459.37242788 123.47643852 462.13422108 C118.85570995 466.41158056 114.20138005 470.64732225 109.51159477 474.84906483 C106.60730558 477.46695262 103.72874881 480.11177237 100.85143852 482.75922108 C96.98271294 486.31694218 93.07703725 489.82185419 89.09753227 493.25531483 C86.89354252 495.20765197 84.74972415 497.21854934 82.60363579 499.23407459 C70.90710136 510.16775189 62.9123176 514.49956274 46.78893852 514.57172108 C45.51212212 514.60459217 44.23530571 514.63746326 42.9197979 514.67133045 C33.51130635 514.72454043 26.79372311 513.21038496 19.53893852 507.07172108 C19.02331352 506.43234608 18.50768852 505.79297108 17.97643852 505.13422108 C17.44018852 504.49484608 16.90393852 503.85547108 16.35143852 503.19672108 C12.77229783 497.82801003 12.69770625 493.101414 12.74938774 486.845891 C12.74909569 485.91857166 12.74880363 484.99125233 12.74850273 484.03583241 C12.74989317 480.97868884 12.76544103 477.92179069 12.78112602 474.86468983 C12.78485717 472.74191388 12.78770366 470.61913621 12.78970146 468.49635792 C12.79732992 462.9150258 12.81697173 457.33379812 12.83910942 451.75250721 C12.85958476 446.05488974 12.8687068 440.35725537 12.87878227 434.6596117 C12.90021829 423.48443566 12.93434481 412.30933706 12.97643852 401.13422108 C11.84351372 401.14799793 10.71058891 401.16177479 9.54333305 401.17596912 C8.02364139 401.18711744 6.50394718 401.19792262 4.98425102 401.20843983 C4.24150932 401.21838978 3.49876762 401.22833973 2.7335186 401.23859119 C-24.99379683 401.38182637 -50.62574938 387.89823767 -70.33606148 369.19672108 C-93.76130724 344.6202346 -100.15541083 316.12645194 -100.20056343 283.31439686 C-100.20683733 281.3059881 -100.21348494 279.29758047 -100.22047615 277.28917408 C-100.24141215 270.71930197 -100.25187009 264.14942991 -100.26184273 257.57953358 C-100.26589447 255.30720349 -100.27001151 253.03487353 -100.27419281 250.76254368 C-100.29322306 240.08061578 -100.30745751 229.39869469 -100.31580478 218.71675313 C-100.32556331 206.4356419 -100.35185594 194.15471157 -100.39230567 181.87366402 C-100.42258781 172.34881101 -100.43728514 162.82400951 -100.44058579 153.29910934 C-100.4429228 147.62556614 -100.45170582 141.95221666 -100.47704697 136.27872562 C-100.50054497 130.93190372 -100.50447475 125.58540011 -100.49428558 120.2385397 C-100.49379532 118.29250172 -100.49996226 116.34644688 -100.51384163 114.40045834 C-100.63897796 95.79165203 -98.24065721 78.0286414 -90.02356148 61.13422108 C-89.7079023 60.48501698 -89.39224312 59.83581287 -89.06701851 59.16693592 C-76.82575679 34.63106074 -55.74812639 15.7453306 -30.02356148 6.13422108 C-20.27652584 2.91189091 -10.32599156 0.01800434 0 0 Z " fill="none" transform="translate(346.02356147766113,254.86577892303467)"/>
<path d="M0 0 C1.1909336 -0.00445784 2.3818672 -0.00891569 3.6088897 -0.01350862 C4.90847457 -0.01332426 6.20805945 -0.01313989 7.54702568 -0.01294994 C8.94863291 -0.01625178 10.3502392 -0.01997803 11.75184429 -0.02409142 C15.59901561 -0.03408386 19.44617134 -0.03782379 23.2933538 -0.04048073 C27.4450056 -0.0443922 31.59664515 -0.0539702 35.74828911 -0.0626936 C45.77489328 -0.08243822 55.80149844 -0.09252343 65.82811719 -0.10142139 C70.55647141 -0.10580912 75.28482453 -0.11117482 80.01317787 -0.11641026 C95.7443735 -0.13342346 111.47556844 -0.14791454 127.20677185 -0.155159 C131.28738341 -0.15706873 135.36799496 -0.15898908 139.44860649 -0.16094494 C140.96983304 -0.16167055 140.96983304 -0.16167055 142.52179144 -0.16241082 C158.92644439 -0.17069952 175.33102415 -0.19601639 191.73564519 -0.22852562 C208.60023824 -0.26167211 225.4647942 -0.27961475 242.32941997 -0.28280324 C251.78906726 -0.28496174 261.24860794 -0.29361277 270.70822334 -0.31926441 C278.77003726 -0.34107567 286.83171868 -0.34897111 294.89355876 -0.33929763 C298.99937204 -0.33478238 303.10491256 -0.33647492 307.21068764 -0.35605907 C344.37500062 -0.52333579 375.42966435 6.11799678 402.68737602 32.78656483 C421.40007377 52.39171431 432.16438373 78.77051824 432.11015129 105.87402821 C432.11354963 107.13952413 432.11354963 107.13952413 432.11701661 108.43058562 C432.1233123 111.23838715 432.12253011 114.04613986 432.12170219 116.85394764 C432.12469646 118.875041 432.12809961 120.89613379 432.13187981 122.91722584 C432.14069703 128.39465894 432.14305697 133.8720764 432.14369559 139.34951591 C432.14440742 142.77556298 432.14654427 146.20160609 432.14919281 149.62765217 C432.1584389 161.59127014 432.16252864 173.55487699 432.16174126 185.51849842 C432.16114076 196.65197657 432.17168908 207.78540623 432.18748492 218.91887212 C432.20058177 228.49281709 432.20592425 238.06674625 432.20528585 247.6407001 C432.20503148 253.35195958 432.20784885 259.06317594 432.2184639 264.77442646 C432.22818092 270.14903701 432.22819941 275.52356355 432.22094727 280.89817715 C432.21990588 282.86368972 432.22223765 284.82920763 432.22830772 286.79471111 C432.25711405 296.77356818 432.13343784 306.33523254 429.97643852 316.13422108 C429.60325493 318.00787342 429.60325493 318.00787342 429.22253227 319.91937733 C422.49391102 347.19142192 405.8441156 370.30641152 381.97643852 385.13422108 C356.96176529 399.725071 331.65084787 401.58264041 303.3396101 401.54153728 C299.3648114 401.53973201 295.39010205 401.55724058 291.41534233 401.57330799 C280.49531152 401.61407486 269.57528935 401.62572404 258.65519524 401.63683796 C248.60214476 401.64735888 238.54920988 401.6641033 228.49623084 401.70493364 C223.77667704 401.72325307 219.05739946 401.72719715 214.33781862 401.71999836 C211.4094194 401.71847675 208.4811589 401.72925621 205.55279732 401.74337673 C203.55124399 401.74928368 201.54966403 401.74027731 199.54812431 401.73082447 C198.35418053 401.73902714 197.16023674 401.7472298 195.93011284 401.75568104 C194.37728788 401.7567498 194.37728788 401.7567498 192.79309273 401.75784016 C187.07083049 402.52248863 183.29613756 406.44371274 179.22643852 410.25922108 C178.70275688 410.74423084 178.17907524 411.22924061 177.63952446 411.72894764 C173.75991042 415.34345078 169.99379344 419.0593912 166.30456352 422.86859608 C163.6577854 425.44431975 160.88768573 427.84449799 158.0994854 430.26508045 C154.69091245 433.26600438 151.40005108 436.3885403 148.10143852 439.50922108 C142.94315519 444.36788763 137.7519987 449.17737662 132.46471977 453.89593983 C129.44265993 456.61437042 126.45883049 459.37242788 123.47643852 462.13422108 C118.85570995 466.41158056 114.20138005 470.64732225 109.51159477 474.84906483 C106.60730558 477.46695262 103.72874881 480.11177237 100.85143852 482.75922108 C96.98271294 486.31694218 93.07703725 489.82185419 89.09753227 493.25531483 C86.89354252 495.20765197 84.74972415 497.21854934 82.60363579 499.23407459 C70.90710136 510.16775189 62.9123176 514.49956274 46.78893852 514.57172108 C45.51212212 514.60459217 44.23530571 514.63746326 42.9197979 514.67133045 C33.51130635 514.72454043 26.79372311 513.21038496 19.53893852 507.07172108 C19.02331352 506.43234608 18.50768852 505.79297108 17.97643852 505.13422108 C17.44018852 504.49484608 16.90393852 503.85547108 16.35143852 503.19672108 C12.77229783 497.82801003 12.69770625 493.101414 12.74938774 486.845891 C12.74909569 485.91857166 12.74880363 484.99125233 12.74850273 484.03583241 C12.74989317 480.97868884 12.76544103 477.92179069 12.78112602 474.86468983 C12.78485717 472.74191388 12.78770366 470.61913621 12.78970146 468.49635792 C12.79732992 462.9150258 12.81697173 457.33379812 12.83910942 451.75250721 C12.85958476 446.05488974 12.8687068 440.35725537 12.87878227 434.6596117 C12.90021829 423.48443566 12.93434481 412.30933706 12.97643852 401.13422108 C11.84351372 401.14799793 10.71058891 401.16177479 9.54333305 401.17596912 C8.02364139 401.18711744 6.50394718 401.19792262 4.98425102 401.20843983 C4.24150932 401.21838978 3.49876762 401.22833973 2.7335186 401.23859119 C-24.99379683 401.38182637 -50.62574938 387.89823767 -70.33606148 369.19672108 C-93.76130724 344.6202346 -100.15541083 316.12645194 -100.20056343 283.31439686 C-100.20683733 281.3059881 -100.21348494 279.29758047 -100.22047615 277.28917408 C-100.24141215 270.71930197 -100.25187009 264.14942991 -100.26184273 257.57953358 C-100.26589447 255.30720349 -100.27001151 253.03487353 -100.27419281 250.76254368 C-100.29322306 240.08061578 -100.30745751 229.39869469 -100.31580478 218.71675313 C-100.32556331 206.4356419 -100.35185594 194.15471157 -100.39230567 181.87366402 C-100.42258781 172.34881101 -100.43728514 162.82400951 -100.44058579 153.29910934 C-100.4429228 147.62556614 -100.45170582 141.95221666 -100.47704697 136.27872562 C-100.50054497 130.93190372 -100.50447475 125.58540011 -100.49428558 120.2385397 C-100.49379532 118.29250172 -100.49996226 116.34644688 -100.51384163 114.40045834 C-100.63897796 95.79165203 -98.24065721 78.0286414 -90.02356148 61.13422108 C-89.7079023 60.48501698 -89.39224312 59.83581287 -89.06701851 59.16693592 C-76.82575679 34.63106074 -55.74812639 15.7453306 -30.02356148 6.13422108 C-20.27652584 2.91189091 -10.32599156 0.01800434 0 0 Z M-40.14856148 67.13422108 C-45.41058882 73.29282103 -48.92340254 80.69626526 -52.02356148 88.13422108 C-52.29221047 88.76249711 -52.56085947 89.39077314 -52.83764935 90.03808784 C-56.0774556 98.98979704 -55.45197038 108.37664432 -55.42761421 117.75800037 C-55.43332323 119.74496817 -55.44028955 121.7319327 -55.44841194 123.7188921 C-55.4663037 129.09521627 -55.46518194 134.47137685 -55.45946956 139.84772182 C-55.45637065 144.34775101 -55.46247826 148.8477491 -55.4685083 153.34777385 C-55.48254009 163.97282378 -55.48100462 174.59779328 -55.4696064 185.22284412 C-55.45813814 196.15415551 -55.4721823 207.08522118 -55.49900287 218.01650017 C-55.52121985 227.42664231 -55.52778342 236.83670767 -55.52192646 246.24687415 C-55.51856861 251.85596081 -55.52089316 257.46489017 -55.53817749 263.07395458 C-55.55373935 268.35430978 -55.54958924 273.63430379 -55.53087234 278.9146452 C-55.52721131 280.84180861 -55.53022147 282.76899934 -55.54075813 284.69613743 C-55.64034437 304.43250653 -52.41668696 321.05200363 -38.28528023 335.86078358 C-37.16572945 336.98613514 -37.16572945 336.98613514 -36.02356148 338.13422108 C-35.43188179 338.76070545 -34.8402021 339.38718983 -34.23059273 340.03265858 C-30.08054989 344.08192774 -25.39035593 346.75251993 -20.27356148 349.38422108 C-19.64248482 349.71373768 -19.01140816 350.04325428 -18.36120796 350.38275623 C-5.26266737 356.80473664 7.98555995 356.57423532 22.21862602 356.49457264 C41.76574686 356.42853507 41.76574686 356.42853507 48.97643852 362.13422108 C55.10828272 368.68787366 57.27032707 374.52890446 57.29528618 383.50458241 C57.3053318 384.33436604 57.31537743 385.16414967 57.32572746 386.01907825 C57.3565249 388.75146281 57.37358501 391.48374953 57.39050102 394.21625233 C57.40921544 396.1148357 57.42878906 398.01341078 57.44918633 399.91197681 C57.5004846 404.90137306 57.54012271 409.89079626 57.57732964 414.88031483 C57.61738368 419.97478358 57.66846965 425.06914041 57.71862602 430.16351795 C57.81535806 440.15367367 57.89977161 450.14389263 57.97643852 460.13422108 C59.09977952 459.17179569 60.22305867 458.20929812 61.34631157 457.24676991 C61.97184425 456.71078678 62.59737694 456.17480366 63.24186516 455.62257862 C69.04058483 450.64696425 74.74160666 445.56565471 80.41393852 440.44672108 C82.88909183 438.21304614 85.37012164 435.98604392 87.85143852 433.75922108 C93.07994872 429.0535619 98.26429251 424.30039586 103.44421196 419.54144764 C105.95320966 417.23713554 108.46496025 414.9358288 110.97643852 412.63422108 C111.97774735 411.71625969 112.97904944 410.79829094 113.98034477 409.88031483 C115.96675734 408.05938277 117.95378239 406.23912252 119.94128227 404.41937733 C125.1077195 399.68808007 130.26652525 394.94871312 135.41393852 390.19672108 C135.95325005 389.69938465 136.49256157 389.20204823 137.04821587 388.689641 C139.79532607 386.15488561 142.53591039 383.61362113 145.26550102 381.06000233 C148.4789425 378.0585255 151.71693012 375.08558688 154.97643852 372.13422108 C155.49625298 371.66145741 156.01606743 371.18869373 156.55163383 370.70160389 C166.13210571 362.07016935 175.0318459 357.02732991 188.14011955 356.99619007 C189.38046959 356.99073673 190.62081963 356.98528339 191.89875603 356.9796648 C193.26571459 356.97854513 194.63267322 356.97749459 195.99963188 356.97650623 C197.44561733 356.97183451 198.89160132 356.96669035 200.33758354 356.96111012 C203.4488435 356.94984822 206.56009398 356.94140457 209.67136765 356.93499088 C214.60297353 356.92427567 219.53451166 356.90401872 224.4660778 356.88187122 C238.48911217 356.82007418 252.51214302 356.766052 266.53527641 356.73285389 C274.2824635 356.71443321 282.02953729 356.6854013 289.77664095 356.64484918 C293.86940636 356.62389667 297.96202969 356.60833882 302.05485153 356.60604191 C305.91355716 356.6038739 309.77196747 356.58778882 313.63058281 356.56165218 C315.03567749 356.55453775 316.44080826 356.55231933 317.84591675 356.55575466 C330.00214986 356.58069635 342.18386494 355.36260479 353.10143852 349.63422108 C353.76393608 349.29237782 354.42643364 348.95053455 355.10900688 348.59833241 C370.09559917 340.46172258 379.60317034 327.19365181 384.97643852 311.13422108 C386.5793423 305.18258615 387.26914979 299.59712249 387.24386406 293.44620228 C387.25066073 292.20710108 387.25066073 292.20710108 387.2575947 290.94296753 C387.2701611 288.20050799 387.26862338 285.45824902 387.26696587 282.71576405 C387.27295607 280.73879716 387.27976274 278.76183261 387.28732109 276.7848711 C387.30494068 271.43124926 387.30967484 266.07769141 387.31095266 260.72404337 C387.3123774 257.37317432 387.31665316 254.02232137 387.3219471 250.67145634 C387.34043579 238.96372164 387.34861938 227.25603239 387.34704399 215.54828358 C387.34584373 204.66414988 387.36692653 193.78021485 387.39853132 182.8961314 C387.4247557 173.52847998 387.43540867 164.16089319 387.43413317 154.79320538 C387.43362524 149.20868476 387.43921428 143.62434071 387.46048927 138.03985691 C387.47997503 132.78169078 387.47992587 127.52386774 387.46545601 122.2656889 C387.46337941 120.3465833 387.46799943 118.42745565 387.48017693 116.50838757 C387.6060156 95.28593056 383.18744072 77.90513747 367.97643852 62.13422108 C352.93797443 48.90365977 336.67112607 44.64986246 316.910429 44.74654102 C315.55268554 44.74235587 314.19494559 44.73687194 312.83721197 44.73022121 C309.14854351 44.71590266 305.46010107 44.71996814 301.77142096 44.72738802 C297.77675626 44.73215146 293.78213827 44.71958201 289.78748894 44.70937061 C281.9780949 44.69223915 274.16878152 44.6913308 266.35937358 44.69658352 C260.00733852 44.70063697 253.65532717 44.69916776 247.30329323 44.69383526 C245.94342709 44.69271263 245.94342709 44.69271263 244.55608892 44.69156731 C242.71394909 44.69003572 240.87180927 44.68849737 239.02966945 44.68695235 C221.78322558 44.6732478 204.53682716 44.67865062 187.29038434 44.69013756 C171.53987998 44.70006815 155.78949314 44.68712863 140.0390069 44.66320337 C123.8340964 44.63877483 107.62924053 44.62921369 91.424312 44.63585609 C82.33939469 44.63933993 73.25456769 44.63717161 64.16966438 44.61960506 C56.43619548 44.60483605 48.70288052 44.60430876 40.96941449 44.62167598 C37.0301203 44.63014978 33.09110054 44.63242509 29.15182114 44.61702442 C1.99096709 44.51853712 -20.14005835 46.69752042 -40.14856148 67.13422108 Z " fill="#1F87FE" transform="translate(346.02356147766113,254.86577892303467)"/>
<path d="M0 0 C8.26303677 5.03277834 17.9282513 13.24153334 20.875 22.6875 C22.03285204 30.20195975 20.53647511 36.00192262 16.12890625 42.10546875 C11.34335011 48.19058876 6.05494795 53.63742511 0.5402832 59.05444336 C-2.94661913 62.48190695 -6.22227929 66.00067038 -9.38671875 69.73046875 C-12.34103321 73.05656211 -15.55518619 76.12455142 -18.71875 79.25 C-20.77949345 81.33750635 -22.72015626 83.45919223 -24.625 85.6875 C-28.10952107 89.76373219 -31.90581981 93.48300873 -35.71875 97.25 C-37.77949345 99.33750635 -39.72015626 101.45919223 -41.625 103.6875 C-45.10952107 107.76373219 -48.90581981 111.48300873 -52.71875 115.25 C-54.77949345 117.33750635 -56.72015626 119.45919223 -58.625 121.6875 C-62.03810672 125.68019088 -65.73808153 129.33707939 -69.5 133 C-72.21075149 135.77529319 -74.74127808 138.66040316 -77.28173828 141.59033203 C-80.29132244 145.01448142 -83.42686929 148.31658884 -86.5625 151.625 C-87.96622786 153.11059958 -89.36987112 154.5962791 -90.7734375 156.08203125 C-91.48854492 156.83822754 -92.20365234 157.59442383 -92.94042969 158.37353516 C-95.12373343 160.6861584 -97.30113452 163.00418706 -99.4765625 165.32421875 C-100.18240479 166.07646729 -100.88824707 166.82871582 -101.61547852 167.60375977 C-102.95525222 169.03193611 -104.2943302 170.46076557 -105.63256836 171.89038086 C-108.6682561 175.1225071 -111.73214453 178.31312041 -114.87890625 181.4375 C-117.19263577 183.73531309 -119.40118262 186.06390788 -121.5 188.5625 C-124.83542374 192.43880326 -128.41908715 196.00847428 -132.0703125 199.5859375 C-133.75607191 201.3101553 -135.19145675 203.00963149 -136.625 204.9375 C-142.08340504 210.94174554 -149.12573328 213.73217887 -157.125 214.125 C-168.57345374 213.89624161 -176.97917077 206.72951061 -184.58203125 198.8515625 C-185.41409592 198.01337982 -186.24616058 197.17519714 -187.10343933 196.31161499 C-189.72928987 193.65909644 -192.33322236 190.98618312 -194.9375 188.3125 C-196.70112592 186.52731307 -198.46609009 184.74344718 -200.23242188 182.9609375 C-213.09180831 169.93573335 -213.09180831 169.93573335 -217.65063477 164.63989258 C-221.38705973 160.31548598 -225.41977685 156.33727841 -229.5078125 152.34765625 C-231.1033078 150.77453794 -232.69834622 149.20095614 -234.29296875 147.62695312 C-236.77453963 145.18247561 -239.25899013 142.74122309 -241.75146484 140.30786133 C-244.17954508 137.93454083 -246.59449576 135.54847565 -249.0078125 133.16015625 C-250.11734787 132.08629417 -250.11734787 132.08629417 -251.2492981 130.99073792 C-257.22042131 125.04982064 -262.69381128 118.18515619 -263.375 109.5 C-262.86445866 101.71424461 -259.81563564 96.53316196 -254.5625 91.0625 C-254.03599854 90.50272461 -253.50949707 89.94294922 -252.96704102 89.36621094 C-247.02856294 83.25357085 -239.87245164 77.7282146 -231.0625 77.3125 C-218.70789166 77.70472395 -210.77261145 87.35867809 -202.71484375 95.57421875 C-201.45460499 96.84125802 -200.19332053 98.10725798 -198.93104553 99.37226868 C-195.63384521 102.68279735 -192.35234894 106.00848262 -189.0736084 109.33728027 C-186.38501129 112.06145336 -183.68512017 114.77427931 -180.98464108 117.48666668 C-177.76577739 120.72028681 -174.55217019 123.95910584 -171.33984375 127.19921875 C-170.72650618 127.8174671 -170.1131686 128.43571545 -169.48124504 129.07269859 C-167.7553833 130.81478926 -166.03317181 132.56039817 -164.31225586 134.30737305 C-163.79856949 134.82531937 -163.28488312 135.34326569 -162.75563049 135.87690735 C-159.24015446 139.45719108 -159.24015446 139.45719108 -158.125 141.6875 C-157.135 141.6875 -156.145 141.6875 -155.125 141.6875 C-153.46139636 139.93312982 -153.46139636 139.93312982 -151.8125 137.5625 C-147.71243643 132.21723193 -143.1408608 127.55364416 -138.31323242 122.86279297 C-134.65518414 119.29024943 -131.24031012 115.58968064 -127.90014648 111.71875 C-124.9209968 108.30979314 -121.80128704 105.03560373 -118.6875 101.75 C-117.27471222 100.25393209 -115.86195261 98.75783758 -114.44921875 97.26171875 C-113.7329834 96.5042334 -113.01674805 95.74674805 -112.27880859 94.96630859 C-108.84779573 91.33617098 -105.42355889 87.69966627 -102 84.0625 C-101.33629395 83.35754395 -100.67258789 82.65258789 -99.98876953 81.92626953 C-95.09332946 76.72373986 -90.21438873 71.50605189 -85.34326172 66.28076172 C-80.48830713 61.0734203 -75.62014029 55.87857677 -70.74780273 50.6875 C-67.5957938 47.3279869 -64.44900534 43.96384115 -61.3125 40.58984375 C-60.69310547 39.92404297 -60.07371094 39.25824219 -59.43554688 38.57226562 C-58.27427434 37.32330261 -57.11402547 36.07338656 -55.95507812 34.82226562 C-52.62502796 31.24195715 -49.22099309 27.75564816 -45.73291016 24.32885742 C-44.07298259 22.63440054 -42.53185266 20.87294096 -41 19.0625 C-37.65376139 15.20028809 -34.14028266 11.52148902 -30.5625 7.875 C-30.02028809 7.31151855 -29.47807617 6.74803711 -28.91943359 6.16748047 C-21.22180218 -1.59548398 -10.50552495 -4.50236783 0 0 Z " fill="#29A8FE" transform="translate(633.125,354.3125)"/>
<path d="M0 0 C0.66 0.33 1.32 0.66 2 1 C1.03900391 1.94359375 1.03900391 1.94359375 0.05859375 2.90625 C-4.54329413 7.46013011 -8.9893686 12.05230561 -13.1953125 16.97265625 C-16.61943288 20.81923304 -20.3225033 24.39755425 -24 28 C-24 25 -24 25 -22.27734375 23.01953125 C-21.11912109 21.92705078 -21.11912109 21.92705078 -19.9375 20.8125 C-16.96843172 17.94549345 -14.11755775 15.07664172 -11.4375 11.9375 C-7.83869933 7.73889922 -3.95437447 3.86193455 0 0 Z " fill="#159BFD" transform="translate(573,394)"/>
<path d="M0 0 C0.66 0 1.32 0 2 0 C0.55746343 3.36591866 -1.33264727 5.51047079 -4 8 C-4.66 7.67 -5.32 7.34 -6 7 C-5.04882866 5.8274869 -4.08882991 4.66212985 -3.125 3.5 C-2.59132813 2.8503125 -2.05765625 2.200625 -1.5078125 1.53125 C-0.76144531 0.77328125 -0.76144531 0.77328125 0 0 Z " fill="#197DFE" transform="translate(278,285)"/>
</svg>
